# MagicaVoxel @ Ephtracy

# group
o 

# material
mtllib Car_Orange.mtl
usemtl palette

# normals
vn -1 0 0
vn 1 0 0
vn 0 0 1
vn 0 0 -1
vn 0 -1 0
vn 0 1 0

# texcoords
vt 0.0917969 0.5
vt 0.115234 0.5
vt 0.841797 0.5
vt 0.916016 0.5
vt 0.958984 0.5
vt 0.962891 0.5
vt 0.966797 0.5
vt 0.978516 0.5

# verts
v 0.9 3.6 -1.7
v 0.9 3.6 -2.1
v 0.9 3.8 -1.7
v 0.9 3.8 -2.1
v 1.1 2.9 -0.8
v 1.1 2.9 -1.5
v 1.1 2.9 -2.9
v 1.1 2.9 -3.6
v 1.1 3 -1
v 1.1 3 -1.3
v 1.1 3 -3.1
v 1.1 3 -3.4
v 1.1 3.1 -0.2
v 1.1 3.1 -0.8
v 1.1 3.1 -1.5
v 1.1 3.1 -2.9
v 1.1 3.1 -3.6
v 1.1 3.1 -3.8
v 1.1 3.2 -0.2
v 1.1 3.2 -0.8
v 1.1 3.2 -1
v 1.1 3.2 -1.3
v 1.1 3.2 -1.5
v 1.1 3.2 -2.9
v 1.1 3.2 -3.1
v 1.1 3.2 -3.4
v 1.1 3.2 -3.6
v 1.1 3.2 -3.8
v 1.1 3.4 -0.2
v 1.1 3.4 -0.8
v 1.1 3.4 -1.5
v 1.1 3.4 -2.9
v 1.1 3.4 -3.6
v 1.1 3.4 -3.8
v 1.1 3.6 -1.7
v 1.1 3.6 -2.1
v 1.1 3.8 -0.2
v 1.1 3.8 -1.7
v 1.1 3.8 -2.1
v 1.1 3.8 -3.8
v 1.3 3.8 -1.5
v 1.3 3.8 -1.7
v 1.3 3.8 -2.7
v 1.3 3.8 -2.9
v 1.3 3.8 -3.2
v 1.3 3.8 -3.4
v 1.3 4.2 -1.7
v 1.3 4.2 -2.7
v 1.3 4.2 -2.9
v 1.3 4.2 -3.2
v 1.3 4.4 -1.5
v 1.3 4.4 -3.4
v 2.4 3.1 -0.2
v 2.4 3.1 -0.4
v 2.4 3.2 -0.2
v 2.4 3.2 -0.3
v 2.4 3.3 -0.2
v 2.4 3.3 -0.3
v 2.4 3.3 -0.4
v 2.7 2.9 -0.8
v 2.7 2.9 -1.5
v 2.7 2.9 -2.9
v 2.7 2.9 -3.6
v 2.7 3.1 -0.8
v 2.7 3.1 -1.5
v 2.7 3.1 -2.9
v 2.7 3.1 -3.6
v 1.3 2.9 -0.8
v 1.3 2.9 -1.5
v 1.3 2.9 -2.9
v 1.3 2.9 -3.6
v 1.3 3.1 -0.8
v 1.3 3.1 -1.5
v 1.3 3.1 -2.9
v 1.3 3.1 -3.6
v 1.6 3.1 -0.2
v 1.6 3.1 -0.4
v 1.6 3.2 -0.2
v 1.6 3.2 -0.3
v 1.6 3.3 -0.2
v 1.6 3.3 -0.3
v 1.6 3.3 -0.4
v 2.7 3.8 -1.5
v 2.7 3.8 -1.7
v 2.7 3.8 -2.7
v 2.7 3.8 -2.9
v 2.7 3.8 -3.2
v 2.7 3.8 -3.4
v 2.7 4.2 -1.7
v 2.7 4.2 -2.7
v 2.7 4.2 -2.9
v 2.7 4.2 -3.2
v 2.7 4.4 -1.5
v 2.7 4.4 -3.4
v 2.9 2.9 -0.8
v 2.9 2.9 -1.5
v 2.9 2.9 -2.9
v 2.9 2.9 -3.6
v 2.9 3 -1
v 2.9 3 -1.3
v 2.9 3 -3.1
v 2.9 3 -3.4
v 2.9 3.1 -0.2
v 2.9 3.1 -0.8
v 2.9 3.1 -1.5
v 2.9 3.1 -2.9
v 2.9 3.1 -3.6
v 2.9 3.1 -3.8
v 2.9 3.2 -0.2
v 2.9 3.2 -0.8
v 2.9 3.2 -1
v 2.9 3.2 -1.3
v 2.9 3.2 -1.5
v 2.9 3.2 -2.9
v 2.9 3.2 -3.1
v 2.9 3.2 -3.4
v 2.9 3.2 -3.6
v 2.9 3.2 -3.8
v 2.9 3.4 -0.2
v 2.9 3.4 -0.8
v 2.9 3.4 -1.5
v 2.9 3.4 -2.9
v 2.9 3.4 -3.6
v 2.9 3.4 -3.8
v 2.9 3.6 -1.7
v 2.9 3.6 -2.1
v 2.9 3.8 -0.2
v 2.9 3.8 -1.7
v 2.9 3.8 -2.1
v 2.9 3.8 -3.8
v 3.1 3.6 -1.7
v 3.1 3.6 -2.1
v 3.1 3.8 -1.7
v 3.1 3.8 -2.1
v 1.1 3.1 -0.2
v 1.1 3.2 -0.2
v 1.1 3.4 -0.2
v 1.1 3.8 -0.2
v 1.3 3.5 -0.2
v 1.3 3.7 -0.2
v 1.6 3.1 -0.2
v 1.6 3.2 -0.2
v 1.6 3.3 -0.2
v 1.6 3.5 -0.2
v 1.6 3.7 -0.2
v 1.7 3.7 -0.2
v 1.7 3.8 -0.2
v 2.3 3.7 -0.2
v 2.3 3.8 -0.2
v 2.4 3.1 -0.2
v 2.4 3.2 -0.2
v 2.4 3.3 -0.2
v 2.4 3.5 -0.2
v 2.4 3.7 -0.2
v 2.7 3.5 -0.2
v 2.7 3.7 -0.2
v 2.9 3.1 -0.2
v 2.9 3.2 -0.2
v 2.9 3.4 -0.2
v 2.9 3.8 -0.2
v 1.6 3.1 -0.4
v 1.6 3.3 -0.4
v 2.4 3.1 -0.4
v 2.4 3.3 -0.4
v 1.1 2.9 -0.8
v 1.1 3.1 -0.8
v 1.2 3.1 -0.8
v 1.3 2.9 -0.8
v 1.3 3.1 -0.8
v 2.7 2.9 -0.8
v 2.7 3.1 -0.8
v 2.8 3.1 -0.8
v 2.9 2.9 -0.8
v 2.9 3.1 -0.8
v 1.3 3.8 -1.5
v 1.3 4.4 -1.5
v 1.5 3.8 -1.5
v 1.5 4.2 -1.5
v 1.7 3.8 -1.5
v 2.3 3.8 -1.5
v 2.5 3.8 -1.5
v 2.5 4.2 -1.5
v 2.7 3.8 -1.5
v 2.7 4.4 -1.5
v 0.9 3.6 -1.7
v 0.9 3.8 -1.7
v 1.1 3.6 -1.7
v 1.1 3.8 -1.7
v 2.9 3.6 -1.7
v 2.9 3.8 -1.7
v 3.1 3.6 -1.7
v 3.1 3.8 -1.7
v 1.1 2.9 -2.9
v 1.1 3.1 -2.9
v 1.2 3.1 -2.9
v 1.3 2.9 -2.9
v 1.3 3.1 -2.9
v 2.7 2.9 -2.9
v 2.7 3.1 -2.9
v 2.8 3.1 -2.9
v 2.9 2.9 -2.9
v 2.9 3.1 -2.9
v 1.1 2.9 -1.5
v 1.1 3.1 -1.5
v 1.2 3.1 -1.5
v 1.3 2.9 -1.5
v 1.3 3.1 -1.5
v 2.7 2.9 -1.5
v 2.7 3.1 -1.5
v 2.8 3.1 -1.5
v 2.9 2.9 -1.5
v 2.9 3.1 -1.5
v 0.9 3.6 -2.1
v 0.9 3.8 -2.1
v 1.1 3.6 -2.1
v 1.1 3.8 -2.1
v 2.9 3.6 -2.1
v 2.9 3.8 -2.1
v 3.1 3.6 -2.1
v 3.1 3.8 -2.1
v 1.3 3.8 -3.4
v 1.3 4.4 -3.4
v 1.5 3.8 -3.4
v 1.5 4.2 -3.4
v 1.7 3.8 -3.4
v 2.3 3.8 -3.4
v 2.5 3.8 -3.4
v 2.5 4.2 -3.4
v 2.7 3.8 -3.4
v 2.7 4.4 -3.4
v 1.1 2.9 -3.6
v 1.1 3.1 -3.6
v 1.2 3.1 -3.6
v 1.3 2.9 -3.6
v 1.3 3.1 -3.6
v 2.7 2.9 -3.6
v 2.7 3.1 -3.6
v 2.8 3.1 -3.6
v 2.9 2.9 -3.6
v 2.9 3.1 -3.6
v 1.1 3.1 -3.8
v 1.1 3.2 -3.8
v 1.1 3.4 -3.8
v 1.1 3.8 -3.8
v 1.3 3.5 -3.8
v 1.3 3.7 -3.8
v 1.6 3.5 -3.8
v 1.6 3.7 -3.8
v 1.7 3.7 -3.8
v 1.7 3.8 -3.8
v 2.3 3.7 -3.8
v 2.3 3.8 -3.8
v 2.4 3.5 -3.8
v 2.4 3.7 -3.8
v 2.7 3.5 -3.8
v 2.7 3.7 -3.8
v 2.9 3.1 -3.8
v 2.9 3.2 -3.8
v 2.9 3.4 -3.8
v 2.9 3.8 -3.8
v 1.1 2.9 -0.8
v 1.3 2.9 -0.8
v 2.7 2.9 -0.8
v 2.9 2.9 -0.8
v 1.1 2.9 -1.5
v 1.3 2.9 -1.5
v 2.7 2.9 -1.5
v 2.9 2.9 -1.5
v 1.1 2.9 -2.9
v 1.3 2.9 -2.9
v 2.7 2.9 -2.9
v 2.9 2.9 -2.9
v 1.1 2.9 -3.6
v 1.3 2.9 -3.6
v 2.7 2.9 -3.6
v 2.9 2.9 -3.6
v 1.1 3.1 -0.2
v 1.6 3.1 -0.2
v 2.4 3.1 -0.2
v 2.9 3.1 -0.2
v 1.2 3.1 -0.3
v 1.5 3.1 -0.3
v 2.5 3.1 -0.3
v 2.8 3.1 -0.3
v 1.6 3.1 -0.4
v 2.4 3.1 -0.4
v 1.5 3.1 -0.5
v 2.5 3.1 -0.5
v 1.1 3.1 -0.8
v 1.2 3.1 -0.8
v 1.3 3.1 -0.8
v 2.7 3.1 -0.8
v 2.8 3.1 -0.8
v 2.9 3.1 -0.8
v 1.1 3.1 -1.5
v 1.2 3.1 -1.5
v 1.3 3.1 -1.5
v 2.7 3.1 -1.5
v 2.8 3.1 -1.5
v 2.9 3.1 -1.5
v 1.1 3.1 -2.9
v 1.2 3.1 -2.9
v 1.3 3.1 -2.9
v 2.7 3.1 -2.9
v 2.8 3.1 -2.9
v 2.9 3.1 -2.9
v 1.1 3.1 -3.6
v 1.2 3.1 -3.6
v 1.3 3.1 -3.6
v 2.7 3.1 -3.6
v 2.8 3.1 -3.6
v 2.9 3.1 -3.6
v 1.2 3.1 -3.7
v 2.8 3.1 -3.7
v 1.1 3.1 -3.8
v 2.9 3.1 -3.8
v 1.6 3.3 -0.2
v 2.4 3.3 -0.2
v 1.6 3.3 -0.3
v 2.4 3.3 -0.3
v 1.6 3.3 -0.4
v 2.4 3.3 -0.4
v 0.9 3.6 -1.7
v 1.1 3.6 -1.7
v 2.9 3.6 -1.7
v 3.1 3.6 -1.7
v 0.9 3.6 -2.1
v 1.1 3.6 -2.1
v 2.9 3.6 -2.1
v 3.1 3.6 -2.1
v 1.1 3.8 -0.2
v 1.7 3.8 -0.2
v 2.3 3.8 -0.2
v 2.9 3.8 -0.2
v 1.3 3.8 -1.5
v 1.5 3.8 -1.5
v 1.7 3.8 -1.5
v 2.3 3.8 -1.5
v 2.5 3.8 -1.5
v 2.7 3.8 -1.5
v 0.9 3.8 -1.7
v 1.1 3.8 -1.7
v 1.3 3.8 -1.7
v 2.7 3.8 -1.7
v 2.9 3.8 -1.7
v 3.1 3.8 -1.7
v 0.9 3.8 -2.1
v 1.1 3.8 -2.1
v 2.9 3.8 -2.1
v 3.1 3.8 -2.1
v 1.3 3.8 -2.7
v 2.7 3.8 -2.7
v 1.3 3.8 -2.9
v 2.7 3.8 -2.9
v 1.3 3.8 -3.2
v 2.7 3.8 -3.2
v 1.3 3.8 -3.4
v 1.5 3.8 -3.4
v 1.7 3.8 -3.4
v 2.3 3.8 -3.4
v 2.5 3.8 -3.4
v 2.7 3.8 -3.4
v 1.1 3.8 -3.8
v 1.7 3.8 -3.8
v 2.3 3.8 -3.8
v 2.9 3.8 -3.8
v 1.3 4.4 -1.5
v 2.7 4.4 -1.5
v 1.3 4.4 -3.4
v 2.7 4.4 -3.4

# faces
f 3/2/1 2/2/1 1/2/1
f 4/2/1 2/2/1 3/2/1
f 9/4/1 6/4/1 5/4/1
f 10/4/1 6/4/1 9/4/1
f 11/4/1 8/4/1 7/4/1
f 12/4/1 8/4/1 11/4/1
f 14/4/1 9/4/1 5/4/1
f 15/4/1 6/4/1 10/4/1
f 16/4/1 11/4/1 7/4/1
f 17/4/1 8/4/1 12/4/1
f 19/8/1 14/8/1 13/8/1
f 20/4/1 9/4/1 14/4/1
f 20/8/1 14/8/1 19/8/1
f 21/6/1 10/6/1 9/6/1
f 21/4/1 9/4/1 20/4/1
f 22/4/1 15/4/1 10/4/1
f 22/6/1 10/6/1 21/6/1
f 23/8/1 16/8/1 15/8/1
f 23/4/1 15/4/1 22/4/1
f 24/4/1 11/4/1 16/4/1
f 24/8/1 16/8/1 23/8/1
f 25/6/1 12/6/1 11/6/1
f 25/4/1 11/4/1 24/4/1
f 26/4/1 17/4/1 12/4/1
f 26/6/1 12/6/1 25/6/1
f 27/8/1 18/8/1 17/8/1
f 27/4/1 17/4/1 26/4/1
f 28/8/1 18/8/1 27/8/1
f 29/2/1 20/2/1 19/2/1
f 30/4/1 22/4/1 21/4/1
f 30/2/1 20/2/1 29/2/1
f 30/4/1 21/4/1 20/4/1
f 30/4/1 23/4/1 22/4/1
f 31/2/1 24/2/1 23/2/1
f 31/4/1 23/4/1 30/4/1
f 32/4/1 26/4/1 25/4/1
f 32/2/1 24/2/1 31/2/1
f 32/4/1 27/4/1 26/4/1
f 32/4/1 25/4/1 24/4/1
f 33/2/1 28/2/1 27/2/1
f 33/4/1 27/4/1 32/4/1
f 34/2/1 28/2/1 33/2/1
f 35/1/1 31/1/1 30/1/1
f 35/1/1 32/1/1 31/1/1
f 35/1/1 34/1/1 33/1/1
f 35/1/1 33/1/1 32/1/1
f 35/1/1 30/1/1 29/1/1
f 36/1/1 34/1/1 35/1/1
f 37/1/1 35/1/1 29/1/1
f 38/1/1 35/1/1 37/1/1
f 39/1/1 34/1/1 36/1/1
f 40/1/1 34/1/1 39/1/1
f 47/5/1 42/5/1 41/5/1
f 47/4/1 43/4/1 42/4/1
f 48/5/1 44/5/1 43/5/1
f 48/4/1 43/4/1 47/4/1
f 49/4/1 45/4/1 44/4/1
f 49/5/1 44/5/1 48/5/1
f 50/5/1 46/5/1 45/5/1
f 50/4/1 45/4/1 49/4/1
f 51/5/1 49/5/1 48/5/1
f 51/5/1 48/5/1 47/5/1
f 51/5/1 50/5/1 49/5/1
f 51/5/1 47/5/1 41/5/1
f 52/5/1 46/5/1 50/5/1
f 52/5/1 50/5/1 51/5/1
f 55/8/1 54/8/1 53/8/1
f 56/8/1 54/8/1 55/8/1
f 57/2/1 56/2/1 55/2/1
f 58/8/1 54/8/1 56/8/1
f 58/2/1 56/2/1 57/2/1
f 59/8/1 54/8/1 58/8/1
f 64/4/1 61/4/1 60/4/1
f 65/4/1 61/4/1 64/4/1
f 66/4/1 63/4/1 62/4/1
f 67/4/1 63/4/1 66/4/1
f 68/4/2 69/4/2 72/4/2
f 72/4/2 69/4/2 73/4/2
f 70/4/2 71/4/2 74/4/2
f 74/4/2 71/4/2 75/4/2
f 76/8/2 77/8/2 78/8/2
f 78/8/2 77/8/2 79/8/2
f 78/2/2 79/2/2 80/2/2
f 79/8/2 77/8/2 81/8/2
f 80/2/2 79/2/2 81/2/2
f 81/8/2 77/8/2 82/8/2
f 83/5/2 84/5/2 89/5/2
f 84/4/2 85/4/2 89/4/2
f 85/5/2 86/5/2 90/5/2
f 89/4/2 85/4/2 90/4/2
f 86/4/2 87/4/2 91/4/2
f 90/5/2 86/5/2 91/5/2
f 87/5/2 88/5/2 92/5/2
f 91/4/2 87/4/2 92/4/2
f 90/5/2 91/5/2 93/5/2
f 89/5/2 90/5/2 93/5/2
f 91/5/2 92/5/2 93/5/2
f 83/5/2 89/5/2 93/5/2
f 92/5/2 88/5/2 94/5/2
f 93/5/2 92/5/2 94/5/2
f 95/4/2 96/4/2 99/4/2
f 99/4/2 96/4/2 100/4/2
f 97/4/2 98/4/2 101/4/2
f 101/4/2 98/4/2 102/4/2
f 95/4/2 99/4/2 104/4/2
f 100/4/2 96/4/2 105/4/2
f 97/4/2 101/4/2 106/4/2
f 102/4/2 98/4/2 107/4/2
f 103/8/2 104/8/2 109/8/2
f 104/4/2 99/4/2 110/4/2
f 109/8/2 104/8/2 110/8/2
f 99/6/2 100/6/2 111/6/2
f 110/4/2 99/4/2 111/4/2
f 100/4/2 105/4/2 112/4/2
f 111/6/2 100/6/2 112/6/2
f 105/8/2 106/8/2 113/8/2
f 112/4/2 105/4/2 113/4/2
f 106/4/2 101/4/2 114/4/2
f 113/8/2 106/8/2 114/8/2
f 101/6/2 102/6/2 115/6/2
f 114/4/2 101/4/2 115/4/2
f 102/4/2 107/4/2 116/4/2
f 115/6/2 102/6/2 116/6/2
f 107/8/2 108/8/2 117/8/2
f 116/4/2 107/4/2 117/4/2
f 117/8/2 108/8/2 118/8/2
f 109/2/2 110/2/2 119/2/2
f 111/4/2 112/4/2 120/4/2
f 119/2/2 110/2/2 120/2/2
f 110/4/2 111/4/2 120/4/2
f 112/4/2 113/4/2 120/4/2
f 113/2/2 114/2/2 121/2/2
f 120/4/2 113/4/2 121/4/2
f 115/4/2 116/4/2 122/4/2
f 121/2/2 114/2/2 122/2/2
f 116/4/2 117/4/2 122/4/2
f 114/4/2 115/4/2 122/4/2
f 117/2/2 118/2/2 123/2/2
f 122/4/2 117/4/2 123/4/2
f 123/2/2 118/2/2 124/2/2
f 120/1/2 121/1/2 125/1/2
f 121/1/2 122/1/2 125/1/2
f 123/1/2 124/1/2 125/1/2
f 122/1/2 123/1/2 125/1/2
f 119/1/2 120/1/2 125/1/2
f 125/1/2 124/1/2 126/1/2
f 119/1/2 125/1/2 127/1/2
f 127/1/2 125/1/2 128/1/2
f 126/1/2 124/1/2 129/1/2
f 129/1/2 124/1/2 130/1/2
f 131/2/2 132/2/2 133/2/2
f 133/2/2 132/2/2 134/2/2
f 139/1/3 138/1/3 137/1/3
f 140/1/3 138/1/3 139/1/3
f 141/8/3 136/8/3 135/8/3
f 142/2/3 137/2/3 136/2/3
f 142/8/3 136/8/3 141/8/3
f 143/2/3 137/2/3 142/2/3
f 144/1/3 139/1/3 137/1/3
f 144/7/3 140/7/3 139/7/3
f 145/1/3 138/1/3 140/1/3
f 145/7/3 140/7/3 144/7/3
f 146/1/3 138/1/3 145/1/3
f 146/1/3 145/1/3 144/1/3
f 147/1/3 138/1/3 146/1/3
f 148/1/3 146/1/3 144/1/3
f 148/2/3 147/2/3 146/2/3
f 149/2/3 147/2/3 148/2/3
f 152/2/3 137/2/3 143/2/3
f 153/1/3 144/1/3 137/1/3
f 153/1/3 148/1/3 144/1/3
f 153/1/3 149/1/3 148/1/3
f 154/1/3 149/1/3 153/1/3
f 155/1/3 153/1/3 137/1/3
f 155/7/3 154/7/3 153/7/3
f 156/1/3 149/1/3 154/1/3
f 156/7/3 154/7/3 155/7/3
f 157/8/3 151/8/3 150/8/3
f 158/2/3 152/2/3 151/2/3
f 158/8/3 151/8/3 157/8/3
f 159/2/3 137/2/3 152/2/3
f 159/2/3 152/2/3 158/2/3
f 159/1/3 155/1/3 137/1/3
f 159/1/3 156/1/3 155/1/3
f 160/1/3 149/1/3 156/1/3
f 160/1/3 156/1/3 159/1/3
f 163/8/3 162/8/3 161/8/3
f 164/8/3 162/8/3 163/8/3
f 167/4/3 166/4/3 165/4/3
f 168/4/3 167/4/3 165/4/3
f 169/4/3 167/4/3 168/4/3
f 172/4/3 171/4/3 170/4/3
f 173/4/3 172/4/3 170/4/3
f 174/4/3 172/4/3 173/4/3
f 177/5/3 176/5/3 175/5/3
f 178/5/3 176/5/3 177/5/3
f 179/4/3 178/4/3 177/4/3
f 180/4/3 178/4/3 179/4/3
f 181/4/3 178/4/3 180/4/3
f 182/5/3 176/5/3 178/5/3
f 182/4/3 178/4/3 181/4/3
f 183/5/3 182/5/3 181/5/3
f 184/5/3 176/5/3 182/5/3
f 184/5/3 182/5/3 183/5/3
f 187/2/3 186/2/3 185/2/3
f 188/2/3 186/2/3 187/2/3
f 191/2/3 190/2/3 189/2/3
f 192/2/3 190/2/3 191/2/3
f 195/4/3 194/4/3 193/4/3
f 196/4/3 195/4/3 193/4/3
f 197/4/3 195/4/3 196/4/3
f 200/4/3 199/4/3 198/4/3
f 201/4/3 200/4/3 198/4/3
f 202/4/3 200/4/3 201/4/3
f 203/4/4 204/4/4 205/4/4
f 203/4/4 205/4/4 206/4/4
f 206/4/4 205/4/4 207/4/4
f 208/4/4 209/4/4 210/4/4
f 208/4/4 210/4/4 211/4/4
f 211/4/4 210/4/4 212/4/4
f 213/2/4 214/2/4 215/2/4
f 215/2/4 214/2/4 216/2/4
f 217/2/4 218/2/4 219/2/4
f 219/2/4 218/2/4 220/2/4
f 221/5/4 222/5/4 223/5/4
f 223/5/4 222/5/4 224/5/4
f 223/4/4 224/4/4 225/4/4
f 225/4/4 224/4/4 226/4/4
f 226/4/4 224/4/4 227/4/4
f 224/5/4 222/5/4 228/5/4
f 227/4/4 224/4/4 228/4/4
f 227/5/4 228/5/4 229/5/4
f 228/5/4 222/5/4 230/5/4
f 229/5/4 228/5/4 230/5/4
f 231/4/4 232/4/4 233/4/4
f 231/4/4 233/4/4 234/4/4
f 234/4/4 233/4/4 235/4/4
f 236/4/4 237/4/4 238/4/4
f 236/4/4 238/4/4 239/4/4
f 239/4/4 238/4/4 240/4/4
f 243/1/4 244/1/4 245/1/4
f 245/1/4 244/1/4 246/1/4
f 243/1/4 245/1/4 247/1/4
f 245/3/4 246/3/4 247/3/4
f 246/1/4 244/1/4 248/1/4
f 247/3/4 246/3/4 248/3/4
f 247/1/4 248/1/4 249/1/4
f 248/1/4 244/1/4 249/1/4
f 249/1/4 244/1/4 250/1/4
f 247/1/4 249/1/4 251/1/4
f 249/2/4 250/2/4 251/2/4
f 251/2/4 250/2/4 252/2/4
f 243/1/4 247/1/4 253/1/4
f 247/1/4 251/1/4 253/1/4
f 251/1/4 252/1/4 253/1/4
f 253/1/4 252/1/4 254/1/4
f 243/1/4 253/1/4 255/1/4
f 253/3/4 254/3/4 255/3/4
f 254/1/4 252/1/4 256/1/4
f 255/3/4 254/3/4 256/3/4
f 241/8/4 242/8/4 257/8/4
f 242/2/4 243/2/4 258/2/4
f 257/8/4 242/8/4 258/8/4
f 243/1/4 255/1/4 259/1/4
f 258/2/4 243/2/4 259/2/4
f 255/1/4 256/1/4 259/1/4
f 256/1/4 252/1/4 260/1/4
f 259/1/4 256/1/4 260/1/4
f 265/4/5 262/4/5 261/4/5
f 266/4/5 262/4/5 265/4/5
f 267/4/5 264/4/5 263/4/5
f 268/4/5 264/4/5 267/4/5
f 273/4/5 270/4/5 269/4/5
f 274/4/5 270/4/5 273/4/5
f 275/4/5 272/4/5 271/4/5
f 276/4/5 272/4/5 275/4/5
f 281/8/5 278/8/5 277/8/5
f 282/8/5 278/8/5 281/8/5
f 283/8/5 280/8/5 279/8/5
f 284/8/5 280/8/5 283/8/5
f 285/8/5 278/8/5 282/8/5
f 286/8/5 283/8/5 279/8/5
f 287/1/5 282/1/5 281/1/5
f 287/8/5 286/8/5 285/8/5
f 287/8/5 285/8/5 282/8/5
f 288/8/5 283/8/5 286/8/5
f 288/8/5 286/8/5 287/8/5
f 288/1/5 284/1/5 283/1/5
f 289/8/5 281/8/5 277/8/5
f 290/1/5 287/1/5 281/1/5
f 290/8/5 281/8/5 289/8/5
f 290/1/5 288/1/5 287/1/5
f 291/1/5 288/1/5 290/1/5
f 292/1/5 284/1/5 288/1/5
f 292/1/5 288/1/5 291/1/5
f 293/8/5 280/8/5 284/8/5
f 293/1/5 284/1/5 292/1/5
f 294/8/5 280/8/5 293/8/5
f 297/1/5 292/1/5 291/1/5
f 298/1/5 292/1/5 297/1/5
f 301/8/5 296/8/5 295/8/5
f 302/1/5 297/1/5 296/1/5
f 302/8/5 296/8/5 301/8/5
f 302/1/5 298/1/5 297/1/5
f 302/1/5 299/1/5 298/1/5
f 303/1/5 299/1/5 302/1/5
f 304/1/5 299/1/5 303/1/5
f 305/8/5 300/8/5 299/8/5
f 305/1/5 299/1/5 304/1/5
f 306/8/5 300/8/5 305/8/5
f 309/1/5 304/1/5 303/1/5
f 310/1/5 304/1/5 309/1/5
f 313/8/5 308/8/5 307/8/5
f 313/1/5 309/1/5 308/1/5
f 313/1/5 311/1/5 310/1/5
f 313/1/5 310/1/5 309/1/5
f 314/8/5 312/8/5 311/8/5
f 314/1/5 311/1/5 313/1/5
f 315/8/5 313/8/5 307/8/5
f 315/8/5 314/8/5 313/8/5
f 316/8/5 312/8/5 314/8/5
f 316/8/5 314/8/5 315/8/5
f 319/2/5 318/2/5 317/2/5
f 320/2/5 318/2/5 319/2/5
f 321/1/5 320/1/5 319/1/5
f 322/1/5 320/1/5 321/1/5
f 327/2/5 324/2/5 323/2/5
f 328/2/5 324/2/5 327/2/5
f 329/2/5 326/2/5 325/2/5
f 330/2/5 326/2/5 329/2/5
f 331/1/6 332/1/6 335/1/6
f 335/1/6 332/1/6 336/1/6
f 332/2/6 333/2/6 337/2/6
f 336/1/6 332/1/6 337/1/6
f 333/1/6 334/1/6 338/1/6
f 337/2/6 333/2/6 338/2/6
f 338/1/6 334/1/6 339/1/6
f 339/1/6 334/1/6 340/1/6
f 331/1/6 335/1/6 342/1/6
f 342/1/6 335/1/6 343/1/6
f 340/1/6 334/1/6 344/1/6
f 344/1/6 334/1/6 345/1/6
f 341/2/6 342/2/6 347/2/6
f 342/1/6 343/1/6 348/1/6
f 347/2/6 342/2/6 348/2/6
f 345/2/6 346/2/6 349/2/6
f 344/1/6 345/1/6 349/1/6
f 349/2/6 346/2/6 350/2/6
f 348/1/6 343/1/6 351/1/6
f 344/1/6 349/1/6 352/1/6
f 348/1/6 351/1/6 353/1/6
f 352/1/6 349/1/6 354/1/6
f 348/1/6 353/1/6 355/1/6
f 354/1/6 349/1/6 356/1/6
f 348/1/6 355/1/6 357/1/6
f 356/1/6 349/1/6 362/1/6
f 348/1/6 357/1/6 363/1/6
f 357/1/6 358/1/6 363/1/6
f 358/1/6 359/1/6 363/1/6
f 359/2/6 360/2/6 364/2/6
f 363/1/6 359/1/6 364/1/6
f 360/1/6 361/1/6 365/1/6
f 364/2/6 360/2/6 365/2/6
f 361/1/6 362/1/6 365/1/6
f 362/1/6 349/1/6 366/1/6
f 365/1/6 362/1/6 366/1/6
f 367/5/6 368/5/6 369/5/6
f 369/5/6 368/5/6 370/5/6
