# MagicaVoxel @ Ephtracy

# group
o 

# material
mtllib Chicken.mtl
usemtl palette

# normals
vn -1 0 0
vn 1 0 0
vn 0 0 1
vn 0 0 -1
vn 0 -1 0
vn 0 1 0

# texcoords
vt 0.0878906 0.5
vt 0.275391 0.5
vt 0.958984 0.5
vt 0.994141 0.5

# verts
v 0.9 3.5 -2.7
v 0.9 3.5 -5.2
v 0.9 5.8 -2.7
v 0.9 5.8 -5.2
v 1.3 3.5 -2.3
v 1.3 3.5 -2.7
v 1.3 3.5 -5.2
v 1.3 3.5 -5.6
v 1.3 5.8 -2.3
v 1.3 5.8 -2.7
v 1.3 5.8 -5.2
v 1.3 5.8 -5.6
v 2.4 4.1 -1.5
v 2.4 4.1 -2.3
v 2.4 4.1 -5.6
v 2.4 4.1 -6.4
v 2.4 5.2 -1.5
v 2.4 5.2 -2.3
v 2.4 5.2 -5.6
v 2.4 5.2 -6.4
v 2.6 2 -2.5
v 2.6 2 -3.7
v 2.6 2 -4.1
v 2.6 2 -5.3
v 2.6 2.4 -2.5
v 2.6 2.4 -3.7
v 2.6 2.4 -4.1
v 2.6 2.4 -5.3
v 2.9 5.8 -2.3
v 2.9 5.8 -5.6
v 2.9 8.6 -2.3
v 2.9 8.6 -5.6
v 3.4 2.4 -2.9
v 3.4 2.4 -3.3
v 3.4 2.4 -4.5
v 3.4 2.4 -4.9
v 3.4 3.5 -2.9
v 3.4 3.5 -3.3
v 3.4 3.5 -4.5
v 3.4 3.5 -4.9
v 3.8 8.6 -3.3
v 3.8 8.6 -4.5
v 3.8 9.6 -3.3
v 3.8 9.6 -4.5
v 4.7 7.3 -2.2
v 4.7 7.3 -2.3
v 4.7 7.3 -5.6
v 4.7 7.3 -5.7
v 4.7 7.8 -2.2
v 4.7 7.8 -2.3
v 4.7 7.8 -5.6
v 4.7 7.8 -5.7
v 3.8 2.4 -2.9
v 3.8 2.4 -3.3
v 3.8 2.4 -4.5
v 3.8 2.4 -4.9
v 3.8 3.5 -2.9
v 3.8 3.5 -3.3
v 3.8 3.5 -4.5
v 3.8 3.5 -4.9
v 4.4 2 -2.9
v 4.4 2 -3.3
v 4.4 2 -4.5
v 4.4 2 -4.9
v 4.4 2.4 -2.9
v 4.4 2.4 -3.3
v 4.4 2.4 -4.5
v 4.4 2.4 -4.9
v 5.2 4.1 -5.6
v 5.2 4.1 -6.4
v 5.2 5.2 -5.6
v 5.2 5.2 -6.4
v 5.2 7.3 -2.2
v 5.2 7.3 -2.3
v 5.2 7.3 -5.6
v 5.2 7.3 -5.7
v 5.2 7.8 -2.2
v 5.2 7.8 -2.3
v 5.2 7.8 -5.6
v 5.2 7.8 -5.7
v 5.3 2 -2.5
v 5.3 2 -2.9
v 5.3 2 -3.3
v 5.3 2 -3.7
v 5.3 2 -4.1
v 5.3 2 -4.5
v 5.3 2 -4.9
v 5.3 2 -5.3
v 5.3 2.4 -2.5
v 5.3 2.4 -2.9
v 5.3 2.4 -3.3
v 5.3 2.4 -3.7
v 5.3 2.4 -4.1
v 5.3 2.4 -4.5
v 5.3 2.4 -4.9
v 5.3 2.4 -5.3
v 5.3 4.1 -1.5
v 5.3 4.1 -2.3
v 5.3 5.2 -1.5
v 5.3 5.2 -2.3
v 5.4 8.6 -3.3
v 5.4 8.6 -4.5
v 5.4 9.6 -3.3
v 5.4 9.6 -4.5
v 5.9 3.5 -2.3
v 5.9 3.5 -5.6
v 5.9 5.5 -3.2
v 5.9 5.5 -4.6
v 5.9 6.5 -3.2
v 5.9 6.5 -4.6
v 5.9 7.5 -3.2
v 5.9 7.5 -4.6
v 5.9 8.6 -2.3
v 5.9 8.6 -5.6
v 6.9 5.5 -3.2
v 6.9 5.5 -4.6
v 6.9 6.5 -3.2
v 6.9 6.5 -4.6
v 7.4 6.5 -3.2
v 7.4 6.5 -4.6
v 7.4 7.5 -3.2
v 7.4 7.5 -4.6
v 2.4 4.1 -1.5
v 2.4 5.2 -1.5
v 5.3 4.1 -1.5
v 5.3 5.2 -1.5
v 4.7 7.3 -2.2
v 4.7 7.8 -2.2
v 5.2 7.3 -2.2
v 5.2 7.8 -2.2
v 1.3 3.5 -2.3
v 1.3 5.8 -2.3
v 2.4 4.1 -2.3
v 2.4 5.2 -2.3
v 2.9 5.8 -2.3
v 2.9 8.6 -2.3
v 4.7 7.3 -2.3
v 4.7 7.8 -2.3
v 5.2 7.3 -2.3
v 5.2 7.8 -2.3
v 5.3 4.1 -2.3
v 5.3 5.2 -2.3
v 5.9 3.5 -2.3
v 5.9 8.6 -2.3
v 2.6 2 -2.5
v 2.6 2.4 -2.5
v 5.3 2 -2.5
v 5.3 2.4 -2.5
v 0.9 3.5 -2.7
v 0.9 5.8 -2.7
v 1.3 3.5 -2.7
v 1.3 5.8 -2.7
v 3.4 2.4 -2.9
v 3.4 3.5 -2.9
v 3.8 2.4 -2.9
v 3.8 3.5 -2.9
v 5.9 5.5 -3.2
v 5.9 6.5 -3.2
v 5.9 7.5 -3.2
v 6.9 5.5 -3.2
v 6.9 6.5 -3.2
v 7.4 6.5 -3.2
v 7.4 7.5 -3.2
v 3.8 8.6 -3.3
v 3.8 9.6 -3.3
v 4.4 2 -3.3
v 4.4 2.4 -3.3
v 5.3 2 -3.3
v 5.3 2.4 -3.3
v 5.4 8.6 -3.3
v 5.4 9.6 -3.3
v 2.6 2 -4.1
v 2.6 2.4 -4.1
v 5.3 2 -4.1
v 5.3 2.4 -4.1
v 3.4 2.4 -4.5
v 3.4 3.5 -4.5
v 3.8 2.4 -4.5
v 3.8 3.5 -4.5
v 4.4 2 -4.9
v 4.4 2.4 -4.9
v 5.3 2 -4.9
v 5.3 2.4 -4.9
v 4.4 2 -2.9
v 4.4 2.4 -2.9
v 5.3 2 -2.9
v 5.3 2.4 -2.9
v 3.4 2.4 -3.3
v 3.4 3.5 -3.3
v 3.8 2.4 -3.3
v 3.8 3.5 -3.3
v 2.6 2 -3.7
v 2.6 2.4 -3.7
v 5.3 2 -3.7
v 5.3 2.4 -3.7
v 3.8 8.6 -4.5
v 3.8 9.6 -4.5
v 4.4 2 -4.5
v 4.4 2.4 -4.5
v 5.3 2 -4.5
v 5.3 2.4 -4.5
v 5.4 8.6 -4.5
v 5.4 9.6 -4.5
v 5.9 5.5 -4.6
v 5.9 6.5 -4.6
v 5.9 7.5 -4.6
v 6.9 5.5 -4.6
v 6.9 6.5 -4.6
v 7.4 6.5 -4.6
v 7.4 7.5 -4.6
v 3.4 2.4 -4.9
v 3.4 3.5 -4.9
v 3.8 2.4 -4.9
v 3.8 3.5 -4.9
v 0.9 3.5 -5.2
v 0.9 5.8 -5.2
v 1.3 3.5 -5.2
v 1.3 5.8 -5.2
v 2.6 2 -5.3
v 2.6 2.4 -5.3
v 5.3 2 -5.3
v 5.3 2.4 -5.3
v 1.3 3.5 -5.6
v 1.3 5.8 -5.6
v 2.4 4.1 -5.6
v 2.4 5.2 -5.6
v 2.9 5.8 -5.6
v 2.9 8.6 -5.6
v 4.7 7.3 -5.6
v 4.7 7.8 -5.6
v 5.2 4.1 -5.6
v 5.2 5.2 -5.6
v 5.2 7.3 -5.6
v 5.2 7.8 -5.6
v 5.9 3.5 -5.6
v 5.9 8.6 -5.6
v 4.7 7.3 -5.7
v 4.7 7.8 -5.7
v 5.2 7.3 -5.7
v 5.2 7.8 -5.7
v 2.4 4.1 -6.4
v 2.4 5.2 -6.4
v 5.2 4.1 -6.4
v 5.2 5.2 -6.4
v 2.6 2 -2.5
v 5.3 2 -2.5
v 4.4 2 -2.9
v 5.3 2 -2.9
v 4.4 2 -3.3
v 5.3 2 -3.3
v 2.6 2 -3.7
v 5.3 2 -3.7
v 2.6 2 -4.1
v 5.3 2 -4.1
v 4.4 2 -4.5
v 5.3 2 -4.5
v 4.4 2 -4.9
v 5.3 2 -4.9
v 2.6 2 -5.3
v 5.3 2 -5.3
v 1.3 3.5 -2.3
v 5.9 3.5 -2.3
v 0.9 3.5 -2.7
v 1.3 3.5 -2.7
v 3.4 3.5 -2.9
v 3.8 3.5 -2.9
v 3.4 3.5 -3.3
v 3.8 3.5 -3.3
v 3.4 3.5 -4.5
v 3.8 3.5 -4.5
v 3.4 3.5 -4.9
v 3.8 3.5 -4.9
v 0.9 3.5 -5.2
v 1.3 3.5 -5.2
v 1.3 3.5 -5.6
v 5.9 3.5 -5.6
v 2.4 4.1 -1.5
v 5.3 4.1 -1.5
v 2.4 4.1 -2.3
v 5.3 4.1 -2.3
v 2.4 4.1 -5.6
v 5.2 4.1 -5.6
v 2.4 4.1 -6.4
v 5.2 4.1 -6.4
v 5.9 5.5 -3.2
v 6.9 5.5 -3.2
v 5.9 5.5 -4.6
v 6.9 5.5 -4.6
v 6.9 6.5 -3.2
v 7.4 6.5 -3.2
v 6.9 6.5 -4.6
v 7.4 6.5 -4.6
v 4.7 7.3 -2.2
v 5.2 7.3 -2.2
v 4.7 7.3 -2.3
v 5.2 7.3 -2.3
v 4.7 7.3 -5.6
v 5.2 7.3 -5.6
v 4.7 7.3 -5.7
v 5.2 7.3 -5.7
v 2.6 2.4 -2.5
v 5.3 2.4 -2.5
v 3.4 2.4 -2.9
v 3.8 2.4 -2.9
v 4.4 2.4 -2.9
v 5.3 2.4 -2.9
v 3.4 2.4 -3.3
v 3.8 2.4 -3.3
v 4.4 2.4 -3.3
v 5.3 2.4 -3.3
v 2.6 2.4 -3.7
v 5.3 2.4 -3.7
v 2.6 2.4 -4.1
v 5.3 2.4 -4.1
v 3.4 2.4 -4.5
v 3.8 2.4 -4.5
v 4.4 2.4 -4.5
v 5.3 2.4 -4.5
v 3.4 2.4 -4.9
v 3.8 2.4 -4.9
v 4.4 2.4 -4.9
v 5.3 2.4 -4.9
v 2.6 2.4 -5.3
v 5.3 2.4 -5.3
v 2.4 5.2 -1.5
v 5.3 5.2 -1.5
v 2.4 5.2 -2.3
v 5.3 5.2 -2.3
v 2.4 5.2 -5.6
v 5.2 5.2 -5.6
v 2.4 5.2 -6.4
v 5.2 5.2 -6.4
v 1.3 5.8 -2.3
v 2.9 5.8 -2.3
v 0.9 5.8 -2.7
v 1.3 5.8 -2.7
v 0.9 5.8 -5.2
v 1.3 5.8 -5.2
v 1.3 5.8 -5.6
v 2.9 5.8 -5.6
v 5.9 7.5 -3.2
v 7.4 7.5 -3.2
v 5.9 7.5 -4.6
v 7.4 7.5 -4.6
v 4.7 7.8 -2.2
v 5.2 7.8 -2.2
v 4.7 7.8 -2.3
v 5.2 7.8 -2.3
v 4.7 7.8 -5.6
v 5.2 7.8 -5.6
v 4.7 7.8 -5.7
v 5.2 7.8 -5.7
v 2.9 8.6 -2.3
v 5.9 8.6 -2.3
v 3.8 8.6 -3.3
v 5.4 8.6 -3.3
v 3.8 8.6 -4.5
v 5.4 8.6 -4.5
v 2.9 8.6 -5.6
v 5.9 8.6 -5.6
v 3.8 9.6 -3.3
v 5.4 9.6 -3.3
v 3.8 9.6 -4.5
v 5.4 9.6 -4.5

# faces
f 3/3/1 2/3/1 1/3/1
f 4/3/1 2/3/1 3/3/1
f 9/3/1 6/3/1 5/3/1
f 10/3/1 6/3/1 9/3/1
f 11/3/1 8/3/1 7/3/1
f 12/3/1 8/3/1 11/3/1
f 17/3/1 14/3/1 13/3/1
f 18/3/1 14/3/1 17/3/1
f 19/3/1 16/3/1 15/3/1
f 20/3/1 16/3/1 19/3/1
f 25/1/1 22/1/1 21/1/1
f 26/1/1 22/1/1 25/1/1
f 27/1/1 24/1/1 23/1/1
f 28/1/1 24/1/1 27/1/1
f 31/3/1 30/3/1 29/3/1
f 32/3/1 30/3/1 31/3/1
f 37/1/1 34/1/1 33/1/1
f 38/1/1 34/1/1 37/1/1
f 39/1/1 36/1/1 35/1/1
f 40/1/1 36/1/1 39/1/1
f 43/2/1 42/2/1 41/2/1
f 44/2/1 42/2/1 43/2/1
f 49/4/1 46/4/1 45/4/1
f 50/4/1 46/4/1 49/4/1
f 51/4/1 48/4/1 47/4/1
f 52/4/1 48/4/1 51/4/1
f 53/1/2 54/1/2 57/1/2
f 57/1/2 54/1/2 58/1/2
f 55/1/2 56/1/2 59/1/2
f 59/1/2 56/1/2 60/1/2
f 61/1/2 62/1/2 65/1/2
f 65/1/2 62/1/2 66/1/2
f 63/1/2 64/1/2 67/1/2
f 67/1/2 64/1/2 68/1/2
f 69/3/2 70/3/2 71/3/2
f 71/3/2 70/3/2 72/3/2
f 73/4/2 74/4/2 77/4/2
f 77/4/2 74/4/2 78/4/2
f 75/4/2 76/4/2 79/4/2
f 79/4/2 76/4/2 80/4/2
f 81/1/2 82/1/2 89/1/2
f 89/1/2 82/1/2 90/1/2
f 83/1/2 84/1/2 91/1/2
f 91/1/2 84/1/2 92/1/2
f 85/1/2 86/1/2 93/1/2
f 93/1/2 86/1/2 94/1/2
f 87/1/2 88/1/2 95/1/2
f 95/1/2 88/1/2 96/1/2
f 97/3/2 98/3/2 99/3/2
f 99/3/2 98/3/2 100/3/2
f 101/2/2 102/2/2 103/2/2
f 103/2/2 102/2/2 104/2/2
f 105/3/2 106/3/2 107/3/2
f 107/3/2 106/3/2 108/3/2
f 105/3/2 107/3/2 109/3/2
f 108/3/2 106/3/2 110/3/2
f 105/3/2 109/3/2 111/3/2
f 110/3/2 106/3/2 112/3/2
f 105/3/2 111/3/2 113/3/2
f 111/3/2 112/3/2 113/3/2
f 112/3/2 106/3/2 114/3/2
f 113/3/2 112/3/2 114/3/2
f 115/2/2 116/2/2 117/2/2
f 117/2/2 116/2/2 118/2/2
f 119/1/2 120/1/2 121/1/2
f 121/1/2 120/1/2 122/1/2
f 125/3/3 124/3/3 123/3/3
f 126/3/3 124/3/3 125/3/3
f 129/4/3 128/4/3 127/4/3
f 130/4/3 128/4/3 129/4/3
f 133/3/3 132/3/3 131/3/3
f 134/3/3 132/3/3 133/3/3
f 135/3/3 132/3/3 134/3/3
f 137/3/3 136/3/3 135/3/3
f 138/3/3 136/3/3 137/3/3
f 139/3/3 137/3/3 135/3/3
f 140/3/3 136/3/3 138/3/3
f 141/3/3 133/3/3 131/3/3
f 142/3/3 140/3/3 139/3/3
f 142/3/3 135/3/3 134/3/3
f 142/3/3 139/3/3 135/3/3
f 143/3/3 141/3/3 131/3/3
f 143/3/3 142/3/3 141/3/3
f 144/3/3 140/3/3 142/3/3
f 144/3/3 142/3/3 143/3/3
f 144/3/3 136/3/3 140/3/3
f 147/1/3 146/1/3 145/1/3
f 148/1/3 146/1/3 147/1/3
f 151/3/3 150/3/3 149/3/3
f 152/3/3 150/3/3 151/3/3
f 155/1/3 154/1/3 153/1/3
f 156/1/3 154/1/3 155/1/3
f 160/2/3 158/2/3 157/2/3
f 161/1/3 159/1/3 158/1/3
f 161/2/3 158/2/3 160/2/3
f 162/1/3 159/1/3 161/1/3
f 163/1/3 159/1/3 162/1/3
f 168/1/3 167/1/3 166/1/3
f 169/1/3 167/1/3 168/1/3
f 170/2/3 165/2/3 164/2/3
f 171/2/3 165/2/3 170/2/3
f 174/1/3 173/1/3 172/1/3
f 175/1/3 173/1/3 174/1/3
f 178/1/3 177/1/3 176/1/3
f 179/1/3 177/1/3 178/1/3
f 182/1/3 181/1/3 180/1/3
f 183/1/3 181/1/3 182/1/3
f 184/1/4 185/1/4 186/1/4
f 186/1/4 185/1/4 187/1/4
f 188/1/4 189/1/4 190/1/4
f 190/1/4 189/1/4 191/1/4
f 192/1/4 193/1/4 194/1/4
f 194/1/4 193/1/4 195/1/4
f 198/1/4 199/1/4 200/1/4
f 200/1/4 199/1/4 201/1/4
f 196/2/4 197/2/4 202/2/4
f 202/2/4 197/2/4 203/2/4
f 204/2/4 205/2/4 207/2/4
f 205/1/4 206/1/4 208/1/4
f 207/2/4 205/2/4 208/2/4
f 208/1/4 206/1/4 209/1/4
f 209/1/4 206/1/4 210/1/4
f 211/1/4 212/1/4 213/1/4
f 213/1/4 212/1/4 214/1/4
f 215/3/4 216/3/4 217/3/4
f 217/3/4 216/3/4 218/3/4
f 219/1/4 220/1/4 221/1/4
f 221/1/4 220/1/4 222/1/4
f 223/3/4 224/3/4 225/3/4
f 225/3/4 224/3/4 226/3/4
f 226/3/4 224/3/4 227/3/4
f 227/3/4 228/3/4 229/3/4
f 229/3/4 228/3/4 230/3/4
f 223/3/4 225/3/4 231/3/4
f 226/3/4 227/3/4 232/3/4
f 227/3/4 229/3/4 232/3/4
f 232/3/4 229/3/4 233/3/4
f 230/3/4 228/3/4 234/3/4
f 232/3/4 233/3/4 235/3/4
f 233/3/4 234/3/4 235/3/4
f 223/3/4 231/3/4 235/3/4
f 231/3/4 232/3/4 235/3/4
f 234/3/4 228/3/4 236/3/4
f 235/3/4 234/3/4 236/3/4
f 237/4/4 238/4/4 239/4/4
f 239/4/4 238/4/4 240/4/4
f 241/3/4 242/3/4 243/3/4
f 243/3/4 242/3/4 244/3/4
f 247/1/5 246/1/5 245/1/5
f 248/1/5 246/1/5 247/1/5
f 249/1/5 247/1/5 245/1/5
f 251/1/5 249/1/5 245/1/5
f 251/1/5 250/1/5 249/1/5
f 252/1/5 250/1/5 251/1/5
f 255/1/5 254/1/5 253/1/5
f 256/1/5 254/1/5 255/1/5
f 257/1/5 255/1/5 253/1/5
f 259/1/5 257/1/5 253/1/5
f 259/1/5 258/1/5 257/1/5
f 260/1/5 258/1/5 259/1/5
f 264/3/5 262/3/5 261/3/5
f 265/3/5 262/3/5 264/3/5
f 265/3/5 264/3/5 263/3/5
f 266/3/5 262/3/5 265/3/5
f 267/3/5 265/3/5 263/3/5
f 268/3/5 262/3/5 266/3/5
f 269/3/5 267/3/5 263/3/5
f 269/3/5 268/3/5 267/3/5
f 270/3/5 262/3/5 268/3/5
f 270/3/5 268/3/5 269/3/5
f 271/3/5 269/3/5 263/3/5
f 272/3/5 262/3/5 270/3/5
f 273/3/5 271/3/5 263/3/5
f 273/3/5 272/3/5 271/3/5
f 274/3/5 272/3/5 273/3/5
f 275/3/5 272/3/5 274/3/5
f 276/3/5 262/3/5 272/3/5
f 276/3/5 272/3/5 275/3/5
f 279/3/5 278/3/5 277/3/5
f 280/3/5 278/3/5 279/3/5
f 283/3/5 282/3/5 281/3/5
f 284/3/5 282/3/5 283/3/5
f 287/2/5 286/2/5 285/2/5
f 288/2/5 286/2/5 287/2/5
f 291/1/5 290/1/5 289/1/5
f 292/1/5 290/1/5 291/1/5
f 295/4/5 294/4/5 293/4/5
f 296/4/5 294/4/5 295/4/5
f 299/4/5 298/4/5 297/4/5
f 300/4/5 298/4/5 299/4/5
f 301/1/6 302/1/6 303/1/6
f 303/1/6 302/1/6 304/1/6
f 304/1/6 302/1/6 305/1/6
f 305/1/6 302/1/6 306/1/6
f 301/1/6 303/1/6 307/1/6
f 304/1/6 305/1/6 308/1/6
f 308/1/6 305/1/6 309/1/6
f 301/1/6 307/1/6 311/1/6
f 309/1/6 310/1/6 311/1/6
f 308/1/6 309/1/6 311/1/6
f 307/1/6 308/1/6 311/1/6
f 311/1/6 310/1/6 312/1/6
f 313/1/6 314/1/6 315/1/6
f 315/1/6 314/1/6 316/1/6
f 316/1/6 314/1/6 317/1/6
f 317/1/6 314/1/6 318/1/6
f 313/1/6 315/1/6 319/1/6
f 316/1/6 317/1/6 320/1/6
f 320/1/6 317/1/6 321/1/6
f 313/1/6 319/1/6 323/1/6
f 321/1/6 322/1/6 323/1/6
f 320/1/6 321/1/6 323/1/6
f 319/1/6 320/1/6 323/1/6
f 323/1/6 322/1/6 324/1/6
f 325/3/6 326/3/6 327/3/6
f 327/3/6 326/3/6 328/3/6
f 329/3/6 330/3/6 331/3/6
f 331/3/6 330/3/6 332/3/6
f 333/3/6 334/3/6 336/3/6
f 335/3/6 336/3/6 337/3/6
f 336/3/6 334/3/6 338/3/6
f 337/3/6 336/3/6 338/3/6
f 338/3/6 334/3/6 339/3/6
f 339/3/6 334/3/6 340/3/6
f 341/1/6 342/1/6 343/1/6
f 343/1/6 342/1/6 344/1/6
f 345/4/6 346/4/6 347/4/6
f 347/4/6 346/4/6 348/4/6
f 349/4/6 350/4/6 351/4/6
f 351/4/6 350/4/6 352/4/6
f 353/3/6 354/3/6 355/3/6
f 355/3/6 354/3/6 356/3/6
f 353/3/6 355/3/6 357/3/6
f 356/3/6 354/3/6 358/3/6
f 353/3/6 357/3/6 359/3/6
f 357/3/6 358/3/6 359/3/6
f 358/3/6 354/3/6 360/3/6
f 359/3/6 358/3/6 360/3/6
f 361/2/6 362/2/6 363/2/6
f 363/2/6 362/2/6 364/2/6
